<?xml version="1.0" encoding="UTF-8"?>
<!DOCTYPE svg PUBLIC "-//W3C//DTD SVG 1.1//EN" "http://www.w3.org/Graphics/SVG/1.1/DTD/svg11.dtd">
<!-- Creator: CorelDRAW X7 -->
<svg xmlns="http://www.w3.org/2000/svg" xml:space="preserve" width="1256px" height="1080px" version="1.1" style="shape-rendering:geometricPrecision; text-rendering:geometricPrecision; image-rendering:optimizeQuality; fill-rule:evenodd; clip-rule:evenodd"
viewBox="0 0 1256 1080"
 xmlns:xlink="http://www.w3.org/1999/xlink">
 <defs>
  <style type="text/css">
   <![CDATA[
    .fil0 {fill:#495678}
   ]]>
  </style>
 </defs>
 <g id="Layer_x0020_1">
  <metadata id="CorelCorpID_0Corel-Layer"/>
  <path class="fil0" d="M664 624l53 -54c13,-12 32,-12 45,0l74 75c25,25 25,66 0,91l-6 6c-25,25 -66,25 -91,0l-75 -74c-12,-12 -12,-32 0,-44zm-632 313l0 55 63 -65c3,-3 5,-6 7,-7 2,-2 5,-2 9,-2 4,0 8,1 11,4 3,2 4,5 4,9 0,5 -2,10 -7,14l-39 37 45 64c3,4 5,8 7,12 1,3 2,6 2,9 0,4 -1,7 -4,10 -3,2 -6,3 -11,3 -5,0 -8,-1 -11,-2 -3,-2 -5,-5 -7,-8 -2,-3 -4,-6 -5,-9l-38 -58 -26 25 0 33c0,7 -2,11 -5,15 -3,3 -6,4 -11,4 -3,0 -6,0 -8,-2 -3,-1 -4,-3 -6,-6 -1,-2 -1,-4 -2,-7 0,-2 0,-6 0,-11l0 -117c0,-7 1,-11 4,-15 3,-3 7,-4 12,-4 5,0 8,1 11,4 3,3 5,8 5,15zm234 8l-71 0 0 39 66 0c5,0 8,1 11,3 2,2 3,5 3,8 0,4 -1,7 -3,9 -3,2 -6,4 -11,4l-66 0 0 44 74 0c5,0 9,2 11,4 3,2 4,5 4,9 0,4 -1,7 -4,9 -2,3 -6,4 -11,4l-87 0c-7,0 -12,-2 -15,-5 -3,-3 -4,-8 -4,-15l0 -118c0,-5 0,-9 2,-12 1,-2 3,-5 6,-6 3,-1 7,-2 11,-2l84 0c6,0 9,1 12,4 2,2 4,5 4,8 0,4 -2,7 -4,9 -3,3 -6,4 -12,4zm97 109l-26 -100 0 108c0,6 -1,11 -4,14 -2,3 -6,4 -10,4 -5,0 -8,-1 -11,-4 -2,-3 -4,-8 -4,-14l0 -124c0,-7 2,-12 6,-14 3,-3 8,-4 14,-4l10 0c6,0 10,1 13,2 2,1 5,3 6,6 1,2 3,7 4,13l23 87 23 -87c2,-6 3,-11 4,-13 2,-3 4,-5 6,-6 3,-1 7,-2 13,-2l10 0c6,0 11,1 15,4 3,2 5,7 5,14l0 124c0,6 -1,11 -4,14 -3,3 -6,4 -11,4 -4,0 -7,-1 -10,-4 -3,-3 -4,-8 -4,-14l0 -108 -26 100c-1,6 -2,11 -4,14 -1,3 -2,6 -5,9 -3,2 -7,3 -12,3 -4,0 -7,0 -9,-2 -3,-2 -5,-4 -6,-6 -2,-3 -3,-5 -4,-9 -1,-3 -1,-6 -2,-9zm171 -117l62 93 0 -94c0,-6 1,-11 4,-14 2,-3 6,-4 10,-4 5,0 8,1 11,4 3,3 4,8 4,14l0 124c0,13 -6,20 -17,20 -3,0 -6,0 -8,-1 -2,-1 -4,-2 -6,-4 -2,-2 -4,-4 -6,-6 -2,-2 -3,-5 -5,-7l-60 -92 0 92c0,6 -1,11 -4,14 -3,3 -6,4 -11,4 -4,0 -8,-1 -11,-4 -2,-3 -4,-8 -4,-14l0 -121c0,-6 1,-10 2,-13 1,-3 4,-5 7,-7 3,-2 6,-3 10,-3 3,0 5,0 7,1 2,1 4,2 6,4 1,1 3,3 4,6 2,2 4,5 5,8zm224 123l-8 -20 -64 0 -7 20c-3,8 -6,13 -8,16 -2,3 -5,4 -10,4 -4,0 -7,-1 -10,-4 -4,-3 -5,-6 -5,-10 0,-2 0,-4 1,-7 1,-2 2,-5 4,-9l40 -103c1,-2 2,-6 4,-10 2,-4 3,-8 5,-10 2,-3 4,-5 7,-7 3,-2 7,-2 11,-2 5,0 9,0 11,2 3,2 6,4 8,7 2,2 3,5 4,8 2,3 3,7 5,12l41 102c3,8 5,13 5,17 0,3 -1,7 -4,10 -4,3 -7,4 -12,4 -2,0 -4,0 -6,-1 -2,-1 -3,-2 -5,-4 -1,-1 -2,-4 -3,-7 -2,-3 -3,-6 -4,-8zm-63 -44l47 0 -24 -65 -23 65zm153 -79l0 55 62 -65c3,-3 6,-6 8,-7 2,-2 5,-2 8,-2 5,0 9,1 11,4 3,2 5,5 5,9 0,5 -3,10 -8,14l-38 37 44 64c4,4 6,8 8,12 1,3 2,6 2,9 0,4 -2,7 -4,10 -3,2 -7,3 -12,3 -4,0 -8,-1 -10,-2 -3,-2 -6,-5 -7,-8 -2,-3 -4,-6 -6,-9l-37 -58 -26 25 0 33c0,7 -2,11 -5,15 -3,3 -7,4 -12,4 -2,0 -5,0 -7,-2 -3,-1 -5,-3 -6,-6 -1,-2 -2,-4 -2,-7 0,-2 0,-6 0,-11l0 -117c0,-7 1,-11 4,-15 3,-3 7,-4 11,-4 5,0 9,1 12,4 3,3 5,8 5,15zm234 8l-72 0 0 39 66 0c5,0 9,1 11,3 3,2 4,5 4,8 0,4 -1,7 -4,9 -2,2 -6,4 -11,4l-66 0 0 44 75 0c5,0 8,2 11,4 2,2 4,5 4,9 0,4 -2,7 -4,9 -3,3 -6,4 -11,4l-87 0c-7,0 -12,-2 -15,-5 -3,-3 -5,-8 -5,-15l0 -118c0,-5 1,-9 2,-12 2,-2 4,-5 7,-6 3,-1 6,-2 11,-2l84 0c5,0 9,1 11,4 3,2 4,5 4,8 0,4 -1,7 -4,9 -2,3 -6,4 -11,4zm86 65l-11 0 0 51c0,7 -2,11 -5,15 -3,3 -6,4 -11,4 -5,0 -9,-1 -12,-5 -3,-3 -4,-8 -4,-14l0 -121c0,-7 1,-12 5,-15 3,-3 8,-5 14,-5l52 0c8,0 14,0 19,1 5,1 9,2 13,4 5,2 10,5 14,9 3,4 6,8 8,13 2,5 3,11 3,17 0,11 -3,21 -10,28 -6,7 -16,12 -30,15 6,3 11,7 16,13 6,6 10,12 14,19 4,6 7,12 10,18 2,5 3,9 3,11 0,2 -1,4 -2,6 -1,2 -3,3 -5,5 -3,1 -5,1 -8,1 -4,0 -7,0 -9,-2 -3,-2 -5,-4 -7,-7 -1,-2 -4,-6 -7,-11l-13 -21c-4,-8 -8,-14 -12,-18 -4,-4 -7,-7 -11,-8 -4,-2 -8,-3 -14,-3zm18 -66l-29 0 0 43 28 0c8,0 15,0 20,-1 5,-2 9,-4 12,-7 2,-3 4,-8 4,-13 0,-5 -1,-9 -3,-12 -3,-3 -6,-6 -10,-8 -3,-1 -11,-2 -22,-2zm-260 -573c29,-30 77,-30 107,0 30,29 29,77 0,107 -30,30 -78,30 -108,0 -29,-29 -29,-77 1,-107zm-242 -241c30,-30 30,-78 0,-108 -29,-29 -77,-29 -107,0 -30,30 -30,78 0,108 29,29 78,29 107,0zm-112 595c-30,29 -30,77 0,107 29,30 77,30 107,0 30,-30 30,-78 0,-108 -29,-29 -78,-29 -107,1zm-242 -242c-29,30 -77,30 -107,1 -30,-30 -29,-78 0,-108 30,-29 78,-30 108,0 29,30 29,78 -1,107zm101 -20l54 54c12,12 12,32 0,44l-75 74c-25,25 -66,25 -91,0l-6 -6c-25,-25 -25,-66 0,-91l74 -75c12,-12 32,-12 44,0zm399 -351l6 6c25,25 25,66 0,91 -64,64 -125,125 -188,189 -11,10 -29,10 -40,0 -29,-30 -59,-60 -89,-89 7,6 17,6 23,0l197 -197c25,-25 66,-25 91,0zm-5 279l-54 -53c-12,-13 -12,-32 0,-45l75 -74c25,-25 66,-25 91,0l6 6c25,25 25,66 0,92l-74 74c-12,12 -32,12 -44,0zm-399 351l-6 -6c-25,-25 -25,-66 0,-91 64,-64 125,-125 188,-188 11,-11 29,-11 40,0 29,29 59,59 89,89 -7,-7 -17,-7 -23,0l-197 196c-25,25 -66,25 -91,0zm166 -511l-53 53c-13,12 -32,12 -45,0l-74 -75c-25,-25 -25,-66 0,-91l6 -6c25,-25 66,-25 91,0l75 74c12,13 12,32 0,45zm351 398l-6 6c-25,25 -66,25 -91,0 -64,-63 -125,-125 -188,-188 -11,-11 -11,-29 0,-40 29,-29 59,-59 88,-89 -6,7 -6,17 0,23l197 197c25,25 25,66 0,91zm-630 -404l6 -6c25,-25 66,-25 91,0 64,64 125,125 188,188 11,11 11,29 0,40 -29,30 -59,59 -88,89 6,-6 6,-17 0,-23l-197 -196c-25,-26 -25,-67 0,-92z"/>
 </g>
</svg>
